<?xml version="1.0" encoding="iso-8859-1"?>
<!-- Uploaded to: SVG Repo, www.svgrepo.com, Generator: SVG Repo Mixer Tools -->
<svg height="800px" width="800px" version="1.1" id="Layer_1" xmlns="http://www.w3.org/2000/svg" xmlns:xlink="http://www.w3.org/1999/xlink" 
	 viewBox="0 0 512 512" xml:space="preserve">
<path style="fill:#0096E6;" d="M512,473.6h-59.733c-5.12,0-8.533-3.413-8.533-8.533c0-5.12,3.413-8.533,8.533-8.533h42.667v-42.667
	c0-5.12,3.413-8.533,8.533-8.533c5.12,0,8.533,3.413,8.533,8.533V473.6z M68.267,473.6H0v-59.733c0-5.12,3.413-8.533,8.533-8.533
	s8.533,3.413,8.533,8.533v42.667h51.2c5.12,0,8.533,3.413,8.533,8.533C76.8,470.187,73.387,473.6,68.267,473.6z M469.333,422.4
	c-5.12,0-8.533-3.413-8.533-8.533V268.8c0-5.12,3.413-8.533,8.533-8.533c5.12,0,8.533,3.413,8.533,8.533v145.067
	C477.867,418.987,474.453,422.4,469.333,422.4z M42.667,422.4c-5.12,0-8.533-3.413-8.533-8.533V268.8
	c0-5.12,3.413-8.533,8.533-8.533S51.2,263.68,51.2,268.8v145.067C51.2,418.987,47.787,422.4,42.667,422.4z M435.2,405.333
	c-5.12,0-8.533-3.413-8.533-8.533v-8.533c0-5.12,3.413-8.533,8.533-8.533c5.12,0,8.533,3.413,8.533,8.533v8.533
	C443.733,401.92,440.32,405.333,435.2,405.333z M409.6,405.333c-5.12,0-8.533-3.413-8.533-8.533v-8.533
	c0-5.12,3.413-8.533,8.533-8.533c5.12,0,8.533,3.413,8.533,8.533v8.533C418.133,401.92,414.72,405.333,409.6,405.333z M384,405.333
	c-5.12,0-8.533-3.413-8.533-8.533v-8.533c0-5.12,3.413-8.533,8.533-8.533c5.12,0,8.533,3.413,8.533,8.533v8.533
	C392.533,401.92,389.12,405.333,384,405.333z M358.4,405.333c-5.12,0-8.533-3.413-8.533-8.533v-8.533
	c0-5.12,3.413-8.533,8.533-8.533s8.533,3.413,8.533,8.533v8.533C366.933,401.92,363.52,405.333,358.4,405.333z M332.8,405.333
	c-5.12,0-8.533-3.413-8.533-8.533v-8.533c0-5.12,3.413-8.533,8.533-8.533s8.533,3.413,8.533,8.533v8.533
	C341.333,401.92,337.92,405.333,332.8,405.333z M307.2,405.333c-5.12,0-8.533-3.413-8.533-8.533v-8.533
	c0-5.12,3.413-8.533,8.533-8.533s8.533,3.413,8.533,8.533v8.533C315.733,401.92,312.32,405.333,307.2,405.333z M281.6,405.333
	c-5.12,0-8.533-3.413-8.533-8.533v-8.533c0-5.12,3.413-8.533,8.533-8.533s8.533,3.413,8.533,8.533v8.533
	C290.133,401.92,286.72,405.333,281.6,405.333z M256,405.333c-5.12,0-8.533-3.413-8.533-8.533v-8.533
	c0-5.12,3.413-8.533,8.533-8.533c5.12,0,8.533,3.413,8.533,8.533v8.533C264.533,401.92,261.12,405.333,256,405.333z M230.4,405.333
	c-5.12,0-8.533-3.413-8.533-8.533v-8.533c0-5.12,3.413-8.533,8.533-8.533c5.12,0,8.533,3.413,8.533,8.533v8.533
	C238.933,401.92,235.52,405.333,230.4,405.333z M204.8,405.333c-5.12,0-8.533-3.413-8.533-8.533v-8.533
	c0-5.12,3.413-8.533,8.533-8.533c5.12,0,8.533,3.413,8.533,8.533v8.533C213.333,401.92,209.92,405.333,204.8,405.333z
	 M179.2,405.333c-5.12,0-8.533-3.413-8.533-8.533v-8.533c0-5.12,3.413-8.533,8.533-8.533c5.12,0,8.533,3.413,8.533,8.533v8.533
	C187.733,401.92,184.32,405.333,179.2,405.333z M153.6,405.333c-5.12,0-8.533-3.413-8.533-8.533v-8.533
	c0-5.12,3.413-8.533,8.533-8.533c5.12,0,8.533,3.413,8.533,8.533v8.533C162.133,401.92,158.72,405.333,153.6,405.333z M128,405.333
	c-5.12,0-8.533-3.413-8.533-8.533v-8.533c0-5.12,3.413-8.533,8.533-8.533c5.12,0,8.533,3.413,8.533,8.533v8.533
	C136.533,401.92,133.12,405.333,128,405.333z M102.4,405.333c-5.12,0-8.533-3.413-8.533-8.533v-8.533
	c0-5.12,3.413-8.533,8.533-8.533c5.12,0,8.533,3.413,8.533,8.533v8.533C110.933,401.92,107.52,405.333,102.4,405.333z M76.8,405.333
	c-5.12,0-8.533-3.413-8.533-8.533v-8.533c0-5.12,3.413-8.533,8.533-8.533c5.12,0,8.533,3.413,8.533,8.533v8.533
	C85.333,401.92,81.92,405.333,76.8,405.333z M435.2,354.133c-5.12,0-8.533-3.413-8.533-8.533v-76.8c0-5.12,3.413-8.533,8.533-8.533
	c5.12,0,8.533,3.413,8.533,8.533v76.8C443.733,350.72,440.32,354.133,435.2,354.133z M384,354.133c-5.12,0-8.533-3.413-8.533-8.533
	v-76.8c0-5.12,3.413-8.533,8.533-8.533c5.12,0,8.533,3.413,8.533,8.533v76.8C392.533,350.72,389.12,354.133,384,354.133z
	 M358.4,354.133c-5.12,0-8.533-3.413-8.533-8.533v-76.8c0-5.12,3.413-8.533,8.533-8.533s8.533,3.413,8.533,8.533v76.8
	C366.933,350.72,363.52,354.133,358.4,354.133z M315.733,354.133c-5.12,0-8.533-3.413-8.533-8.533v-76.8
	c0-5.12,3.413-8.533,8.533-8.533c5.12,0,8.533,3.413,8.533,8.533v76.8C324.267,350.72,320.853,354.133,315.733,354.133z
	 M290.133,354.133c-5.12,0-8.533-3.413-8.533-8.533v-76.8c0-5.12,3.413-8.533,8.533-8.533c5.12,0,8.533,3.413,8.533,8.533v76.8
	C298.667,350.72,295.253,354.133,290.133,354.133z M247.467,354.133c-5.12,0-8.533-3.413-8.533-8.533v-76.8
	c0-5.12,3.413-8.533,8.533-8.533c5.12,0,8.533,3.413,8.533,8.533v76.8C256,350.72,252.587,354.133,247.467,354.133z
	 M196.267,354.133c-5.12,0-8.533-3.413-8.533-8.533v-76.8c0-5.12,3.413-8.533,8.533-8.533c5.12,0,8.533,3.413,8.533,8.533v76.8
	C204.8,350.72,201.387,354.133,196.267,354.133z M170.667,354.133c-5.12,0-8.533-3.413-8.533-8.533v-76.8
	c0-5.12,3.413-8.533,8.533-8.533c5.12,0,8.533,3.413,8.533,8.533v76.8C179.2,350.72,175.787,354.133,170.667,354.133z
	 M145.067,354.133c-5.12,0-8.533-3.413-8.533-8.533v-76.8c0-5.12,3.413-8.533,8.533-8.533c5.12,0,8.533,3.413,8.533,8.533v76.8
	C153.6,350.72,150.187,354.133,145.067,354.133z M102.4,354.133c-5.12,0-8.533-3.413-8.533-8.533v-76.8
	c0-5.12,3.413-8.533,8.533-8.533c5.12,0,8.533,3.413,8.533,8.533v76.8C110.933,350.72,107.52,354.133,102.4,354.133z M76.8,354.133
	c-5.12,0-8.533-3.413-8.533-8.533v-76.8c0-5.12,3.413-8.533,8.533-8.533c5.12,0,8.533,3.413,8.533,8.533v76.8
	C85.333,350.72,81.92,354.133,76.8,354.133z M503.467,251.733H8.533C3.413,251.733,0,248.32,0,243.2s3.413-8.533,8.533-8.533
	h494.933c5.12,0,8.533,3.413,8.533,8.533S508.587,251.733,503.467,251.733z M469.333,226.133c-5.12,0-8.533-3.413-8.533-8.533
	V98.133c0-5.12,3.413-8.533,8.533-8.533c5.12,0,8.533,3.413,8.533,8.533V217.6C477.867,222.72,474.453,226.133,469.333,226.133z
	 M435.2,226.133c-5.12,0-8.533-3.413-8.533-8.533V98.133c0-5.12,3.413-8.533,8.533-8.533c5.12,0,8.533,3.413,8.533,8.533V217.6
	C443.733,222.72,440.32,226.133,435.2,226.133z M384,226.133c-5.12,0-8.533-3.413-8.533-8.533V98.133
	c0-5.12,3.413-8.533,8.533-8.533c5.12,0,8.533,3.413,8.533,8.533V217.6C392.533,222.72,389.12,226.133,384,226.133z M358.4,226.133
	c-5.12,0-8.533-3.413-8.533-8.533V98.133c0-5.12,3.413-8.533,8.533-8.533s8.533,3.413,8.533,8.533V217.6
	C366.933,222.72,363.52,226.133,358.4,226.133z M315.733,226.133c-5.12,0-8.533-3.413-8.533-8.533V98.133
	c0-5.12,3.413-8.533,8.533-8.533c5.12,0,8.533,3.413,8.533,8.533V217.6C324.267,222.72,320.853,226.133,315.733,226.133z
	 M290.133,226.133c-5.12,0-8.533-3.413-8.533-8.533V98.133c0-5.12,3.413-8.533,8.533-8.533c5.12,0,8.533,3.413,8.533,8.533V217.6
	C298.667,222.72,295.253,226.133,290.133,226.133z M247.467,226.133c-5.12,0-8.533-3.413-8.533-8.533V98.133
	c0-5.12,3.413-8.533,8.533-8.533c5.12,0,8.533,3.413,8.533,8.533V217.6C256,222.72,252.587,226.133,247.467,226.133z
	 M196.267,226.133c-5.12,0-8.533-3.413-8.533-8.533V98.133c0-5.12,3.413-8.533,8.533-8.533c5.12,0,8.533,3.413,8.533,8.533V217.6
	C204.8,222.72,201.387,226.133,196.267,226.133z M170.667,226.133c-5.12,0-8.533-3.413-8.533-8.533V98.133
	c0-5.12,3.413-8.533,8.533-8.533c5.12,0,8.533,3.413,8.533,8.533V217.6C179.2,222.72,175.787,226.133,170.667,226.133z
	 M145.067,226.133c-5.12,0-8.533-3.413-8.533-8.533V98.133c0-5.12,3.413-8.533,8.533-8.533c5.12,0,8.533,3.413,8.533,8.533V217.6
	C153.6,222.72,150.187,226.133,145.067,226.133z M102.4,226.133c-5.12,0-8.533-3.413-8.533-8.533V98.133
	c0-5.12,3.413-8.533,8.533-8.533c5.12,0,8.533,3.413,8.533,8.533V217.6C110.933,222.72,107.52,226.133,102.4,226.133z M76.8,226.133
	c-5.12,0-8.533-3.413-8.533-8.533V98.133c0-5.12,3.413-8.533,8.533-8.533c5.12,0,8.533,3.413,8.533,8.533V217.6
	C85.333,222.72,81.92,226.133,76.8,226.133z M42.667,226.133c-5.12,0-8.533-3.413-8.533-8.533V98.133
	c0-5.12,3.413-8.533,8.533-8.533s8.533,3.413,8.533,8.533V217.6C51.2,222.72,47.787,226.133,42.667,226.133z M503.467,106.667
	c-5.12,0-8.533-3.413-8.533-8.533V55.467h-51.2c-5.12,0-8.533-3.413-8.533-8.533s3.413-8.533,8.533-8.533H512v59.733
	C512,103.253,508.587,106.667,503.467,106.667z M8.533,106.667c-5.12,0-8.533-3.413-8.533-8.533V38.4h59.733
	c5.12,0,8.533,3.413,8.533,8.533s-3.413,8.533-8.533,8.533H17.067v42.667C17.067,103.253,13.653,106.667,8.533,106.667z"/>
</svg>